<?xml version="1.0" standalone="no"?>
<!DOCTYPE svg PUBLIC "-//W3C//DTD SVG 20010904//EN"
 "http://www.w3.org/TR/2001/REC-SVG-20010904/DTD/svg10.dtd">
<svg version="1.0" xmlns="http://www.w3.org/2000/svg"
 width="368.000000pt" height="368.000000pt" viewBox="0 0 368.000000 368.000000"
 preserveAspectRatio="xMidYMid meet">
<metadata>
Created by potrace 1.11, written by Peter Selinger 2001-2013
</metadata>
<g transform="translate(0.000000,368.000000) scale(0.100000,-0.100000)"
fill="#000000" stroke="none">
<path d="M1585 3496 c-261 -44 -492 -140 -708 -293 -109 -78 -287 -257 -370
-373 -126 -178 -229 -415 -279 -643 -20 -89 -22 -131 -22 -332 0 -254 11 -335
75 -527 53 -160 172 -388 254 -487 216 -262 422 -419 692 -528 214 -86 410
-118 666 -110 257 8 434 53 662 167 161 81 287 173 420 305 131 131 223 258
302 415 32 63 65 121 73 128 13 12 13 13 0 6 -12 -7 -13 -5 -3 8 7 8 9 19 5
24 -4 4 2 2 12 -6 18 -14 18 -14 9 5 -9 16 -6 37 13 94 57 175 68 259 68 506
0 201 -2 243 -22 332 -50 228 -153 465 -279 643 -87 122 -262 296 -383 382
-175 124 -396 221 -612 269 -120 27 -451 35 -573 15z"/>
<path d="M390 1013 c8 -3 19 -11 23 -17 6 -7 7 -6 4 4 -2 8 -12 16 -23 17 -13
2 -15 1 -4 -4z"/>
<path d="M3290 540 c-9 -6 -10 -10 -3 -10 6 0 15 5 18 10 8 12 4 12 -15 0z"/>
</g>
</svg>
